<mxfile modified="2022-05-08T23:23:52.113Z" host="app.diagrams.net" agent="5.0 (Windows NT 10.0; Win64; x64) AppleWebKit/537.36 (KHTML, like Gecko) Chrome/101.0.4951.54 Safari/537.36 Edg/101.0.1210.39" etag="s6YXOa_p_PEeK7lhHFBg" compressed="false" version="18.0.2" type="google">
  <diagram name="DR VIEW" id="qZ0I8w-eSRKSyfofpkMa">
    <mxGraphModel grid="1" page="1" gridSize="10" guides="1" tooltips="1" connect="1" arrows="1" fold="1" pageScale="1" pageWidth="827" pageHeight="1169" math="0" shadow="0">
      <root>
        <mxCell id="HnyuUCdIUrc16FkQiDCt-0" />
        <mxCell id="HnyuUCdIUrc16FkQiDCt-1" value="About" parent="HnyuUCdIUrc16FkQiDCt-0" />
        <mxCell id="HnyuUCdIUrc16FkQiDCt-3" value="Title" parent="HnyuUCdIUrc16FkQiDCt-0" />
        <mxCell id="HnyuUCdIUrc16FkQiDCt-4" value="Disaster Recovery View" style="text;html=1;strokeColor=none;fillColor=none;align=center;verticalAlign=middle;whiteSpace=wrap;rounded=0;fontSize=48;opacity=30;" vertex="1" parent="HnyuUCdIUrc16FkQiDCt-3">
          <mxGeometry x="160" y="200" width="480" height="320" as="geometry" />
        </mxCell>
      </root>
    </mxGraphModel>
  </diagram>
</mxfile>
